<svg id="Layer_1" data-name="Layer 1" xmlns="http://www.w3.org/2000/svg" viewBox="0 0 1835 535"><defs><style>.cls-1,.cls-11,.cls-13,.cls-2,.cls-8{isolation:isolate;}.cls-11,.cls-2,.cls-8{font-size:82.51px;}.cls-11,.cls-13,.cls-2{font-family:Muli-Italic, Muli;}.cls-11,.cls-13,.cls-2,.cls-8{font-style:italic;}.cls-10,.cls-2{letter-spacing:-0.02em;}.cls-3{letter-spacing:-0.02em;}.cls-11,.cls-4,.cls-5,.cls-8{letter-spacing:-0.02em;}.cls-5{font-family:Muli-Bold, Muli;font-style:normal;}.cls-5,.cls-8{font-weight:700;}.cls-6{letter-spacing:-0.03em;}.cls-7{letter-spacing:-0.02em;}.cls-17,.cls-8{fill:#3aae9b;}.cls-8{font-family:Muli-BoldItalic, Muli;}.cls-9{letter-spacing:-0.03em;}.cls-12{letter-spacing:-0.04em;}.cls-13{font-size:50px;letter-spacing:-0.02em;}.cls-14{letter-spacing:-0.03em;}.cls-15{letter-spacing:-0.02em;}.cls-16{opacity:0.7;}.cls-18{fill:#76e2f8;}.cls-19{fill:#4bb9ec;}.cls-20{fill:#159ce4;}.cls-21{fill:#a4d9f5;}.cls-22{fill:#c5e7f9;}.cls-23{fill:#81c8ee;}.cls-24{fill:#b7e0f6;}.cls-25{fill:#e5f4fd;}.cls-26{fill:#88caf3;}.cls-27{fill:#3c3a41;}</style></defs><title>Quoteimage</title><g id="_Dale_un_pez_a_un_hombre" data-name=" Dale un pez a un hombre" class="cls-1"><text class="cls-2" transform="translate(446.45 173.62)">“Dale un p<tspan class="cls-3" x="383.83" y="0">e</tspan><tspan class="cls-4" x="427.06" y="0">z</tspan><tspan class="cls-5" x="468.48" y="0"> </tspan><tspan class="cls-4" x="489.77" y="0">a un homb</tspan><tspan class="cls-6" x="883.82" y="0">r</tspan><tspan class="cls-7" x="911.55" y="0">e</tspan></text></g><g id="_por_toda_una_vida_" data-name=" por toda una vida "><text class="cls-8" transform="translate(402.25 443.84)"><tspan xml:space="preserve"> come</tspan><tspan class="cls-9" x="225.74" y="0">r</tspan><tspan class="cls-10" x="255.94" y="0">á por toda una vida”</tspan></text></g><g id="y_comerá_por_un_día" data-name="y comerá por un día"><text class="cls-8" transform="translate(534.19 253.64)">y come<tspan class="cls-9" x="269.22" y="0">r</tspan><tspan class="cls-10" x="299.42" y="0">á por un día </tspan></text></g><g id="enséñale_a_pescar_y_comerá" data-name="enséñale a pescar y comerá"><text class="cls-11" transform="translate(582.76 345.86)">enséñale a pesca<tspan class="cls-12" x="638.36" y="0">r</tspan><tspan x="665.1" y="0">,</tspan></text></g><g id="enséñale_a_pescar_y_comerá-2" data-name="enséñale a pescar y comerá"><text class="cls-13" transform="translate(1134.76 509.86)">- p<tspan class="cls-14" x="62.1" y="0">r</tspan><tspan class="cls-15" x="78.9" y="0">ov</tspan><tspan x="131.85" y="0">erbio chino</tspan></text></g><g id="Group_127" data-name="Group 127" class="cls-16"><circle id="Ellipse_75" data-name="Ellipse 75" class="cls-17" cx="164" cy="164" r="164"/><circle id="Ellipse_77" data-name="Ellipse 77" class="cls-17" cx="215" cy="466" r="69"/><circle id="Ellipse_78" data-name="Ellipse 78" class="cls-17" cx="427" cy="300" r="28"/></g><g id="Group_128" data-name="Group 128" class="cls-16"><circle id="Ellipse_75-2" data-name="Ellipse 75-2" class="cls-17" cx="1671" cy="164" r="164"/><circle id="Ellipse_77-2" data-name="Ellipse 77-2" class="cls-17" cx="1620" cy="466" r="69"/><circle id="Ellipse_78-2" data-name="Ellipse 78-2" class="cls-17" cx="1408" cy="300" r="28"/></g><rect class="cls-18" x="63.21" y="119.55" width="199.7" height="88.69" rx="0.79" transform="translate(35.94 357.01) rotate(-101.79)"/><rect class="cls-19" x="84.78" y="137.08" width="199.7" height="44.63" rx="0.79" transform="translate(66.32 372.7) rotate(-101.79)"/><circle class="cls-19" cx="162.85" cy="164.24" r="31.56"/><path class="cls-20" d="M193.74,157.79a31.56,31.56,0,0,0-35.89-24.72,1.43,1.43,0,0,0-1.15,1.71L169,193.69a1.44,1.44,0,0,0,1.74,1.11A31.56,31.56,0,0,0,193.74,157.79Z"/><path class="cls-19" d="M182.51,66.6,219.8,245.29a1.42,1.42,0,0,1-1.1,1.69L145.32,262.3a1.44,1.44,0,0,1-1.7-1.11L106.33,82.5a1.43,1.43,0,0,1,1.11-1.69l73.38-15.32A1.43,1.43,0,0,1,182.51,66.6Zm33.91,176.47L180.29,70a1.43,1.43,0,0,0-1.69-1.11L110.82,83a1.42,1.42,0,0,0-1.1,1.69l36.12,173.09a1.43,1.43,0,0,0,1.69,1.1l67.78-14.14A1.44,1.44,0,0,0,216.42,243.07Z"/><path class="cls-20" d="M145.83,75.72l32.77-6.84A1.43,1.43,0,0,1,180.29,70l36.13,173.08a1.44,1.44,0,0,1-1.11,1.7l-32.77,6.84a1.43,1.43,0,0,0-1.11,1.69h0a1.44,1.44,0,0,0,1.7,1.11L218.7,247a1.42,1.42,0,0,0,1.1-1.69L182.51,66.6a1.43,1.43,0,0,0-1.69-1.11l-35.57,7.43a1.43,1.43,0,0,0-1.11,1.69h0A1.43,1.43,0,0,0,145.83,75.72Z"/><rect class="cls-18" x="1584.63" y="450.16" width="70.87" height="31.47" rx="0.79" transform="translate(342.92 1566.16) rotate(-56.79)"/><rect class="cls-19" x="1591.17" y="462.26" width="70.87" height="15.84" rx="0.79" transform="translate(342.3 1573.57) rotate(-56.79)"/><circle class="cls-19" cx="1619.93" cy="465.93" r="11.2"/><path class="cls-20" d="M1629.3,472.06a11.21,11.21,0,0,0-2.81-15.21.51.51,0,0,0-.72.14l-11.69,17.87a.5.5,0,0,0,.16.71A11.19,11.19,0,0,0,1629.3,472.06Z"/><path class="cls-19" d="M1649.36,446.36l-35.48,54.2a.5.5,0,0,1-.7.14l-22.26-14.57a.5.5,0,0,1-.14-.7l35.47-54.19a.52.52,0,0,1,.71-.15l22.25,14.57A.5.5,0,0,1,1649.36,446.36Zm-35.77,52.79L1648,446.66a.51.51,0,0,0-.14-.71l-20.56-13.46a.51.51,0,0,0-.7.15l-34.37,52.5a.5.5,0,0,0,.15.7l20.55,13.46A.52.52,0,0,0,1613.59,499.15Z"/><path class="cls-20" d="M1637.87,439.45l9.94,6.5a.51.51,0,0,1,.14.71l-34.36,52.49a.52.52,0,0,1-.71.15l-9.93-6.51a.52.52,0,0,0-.71.15h0a.5.5,0,0,0,.15.7l10.79,7.06a.5.5,0,0,0,.7-.14l35.48-54.2a.5.5,0,0,0-.15-.7l-10.79-7.06a.5.5,0,0,0-.7.14h0A.52.52,0,0,0,1637.87,439.45Z"/><path class="cls-21" d="M1649.28,204.25a5.59,5.59,0,0,1,3.74-7l33.38-14.22a5.59,5.59,0,0,1,5.75,5.41l.72,23.55a16.76,16.76,0,0,1-8,14.86,16.27,16.27,0,0,1-16.32.68A39.3,39.3,0,0,1,1649.28,204.25Z"/><path class="cls-22" d="M1646.29,118.38a39.18,39.18,0,0,1,18.47-26.06,16,16,0,0,1,16-.17,17,17,0,0,1,8.83,14.34l.77,24.86a5.59,5.59,0,0,1-5.41,5.75l-34.29-12.16A5.58,5.58,0,0,1,1646.29,118.38Z"/><path class="cls-22" d="M1725.49,159.11c.29-13.5-2.39-24.18,7.37-34.75,7.72-8.53,21-12.58,40.67-13.26a5.74,5.74,0,0,1,5.78,5.43c.54,17.67-2.71,29.94-9.83,37.5a25,25,0,0,1-4.61,3.94,31.18,31.18,0,0,1,7.42,5.14c9.12,8.72,9.26,21,9.37,29.81.32,10.3-3.48,9-11.08,9.5-10.32.72-23.09,1.58-32.6-7C1728.23,186.51,1726.29,172.43,1725.49,159.11Z"/><path class="cls-21" d="M1781.66,192.92c.32,10.3-3.48,9-11.08,9.5-10.32.72-23.09,1.58-32.6-7-9.75-8.86-11.69-22.94-12.49-36.26v-.18l39.76-1.23-.38.27a31.18,31.18,0,0,1,7.42,5.14C1781.41,171.83,1781.55,184.07,1781.66,192.92Z"/><path class="cls-23" d="M1609.33,206.44c31.52,12.77,67,2.37,126-41.95a6.67,6.67,0,0,0-.32-10.42c-60.48-39.84-96.33-49.72-126.63-36.07l-8.46,20.4,2.73,24.33,2.19,19.68Z"/><path class="cls-20" d="M1735.29,164.49c-59,44.32-94.44,54.72-126,41.95l-4.53-24-2.19-19.68h0l135-4.17A6.52,6.52,0,0,1,1735.29,164.49Z"/><path class="cls-22" d="M1566.36,175.7c9.27,8.72,19.42,17.49,30.21,24.1a97.79,97.79,0,0,0,12.76,6.64c18-10,26.41-27.44,26.19-44.65A50.35,50.35,0,0,0,1608.34,118a91.54,91.54,0,0,0-12.42,7c-10.91,7.37-21.2,17.16-30.22,26.92a16.85,16.85,0,0,0-4.52,12A17.4,17.4,0,0,0,1566.36,175.7Z"/><path class="cls-24" d="M1635.52,161.79c.22,17.21-8.17,34.61-26.19,44.65a97.79,97.79,0,0,1-12.76-6.64c-10.79-6.61-20.94-15.39-30.21-24.1a17.41,17.41,0,0,1-5.18-11.7l74.34-2.29Z"/><path class="cls-25" d="M1648.05,186.29a5.61,5.61,0,0,0,6.91-3.77,68.9,68.9,0,0,0,2.81-21.42,74,74,0,0,0-3.58-21.29,5.59,5.59,0,1,0-10.63,3.49,59.72,59.72,0,0,1,3,18.15,58,58,0,0,1-2.29,17.92A5.51,5.51,0,0,0,1648.05,186.29Z"/><path class="cls-26" d="M1657.77,161.1a68.9,68.9,0,0,1-2.81,21.42,5.61,5.61,0,0,1-6.91,3.77,5.51,5.51,0,0,1-3.77-6.92,58,58,0,0,0,2.29-17.92v-.09l11.2-.34Z"/><circle class="cls-27" cx="1601.79" cy="156.46" r="5.58"/><path class="cls-21" d="M226.55,488.24a2.82,2.82,0,0,0-1.89-3.52l-16.88-7.2a2.83,2.83,0,0,0-2.91,2.74l-.37,11.92a8.48,8.48,0,0,0,4,7.51,8.23,8.23,0,0,0,8.25.35A19.91,19.91,0,0,0,226.55,488.24Z"/><path class="cls-22" d="M228.06,444.8a19.84,19.84,0,0,0-9.34-13.19,8.15,8.15,0,0,0-8.11-.09,8.64,8.64,0,0,0-4.46,7.26l-.39,12.58a2.83,2.83,0,0,0,2.74,2.91l17.34-6.16A2.81,2.81,0,0,0,228.06,444.8Z"/><path class="cls-22" d="M188,465.4c-.15-6.83,1.2-12.23-3.73-17.58-3.91-4.32-10.64-6.36-20.58-6.71a2.91,2.91,0,0,0-2.92,2.75c-.27,8.94,1.37,15.15,5,19a12.68,12.68,0,0,0,2.34,2,16,16,0,0,0-3.76,2.61c-4.61,4.41-4.68,10.6-4.74,15.07-.16,5.22,1.76,4.54,5.6,4.81,5.23.36,11.69.8,16.5-3.56S187.59,472.14,188,465.4Z"/><path class="cls-21" d="M159.58,482.5c-.16,5.22,1.76,4.54,5.6,4.81,5.23.36,11.69.8,16.5-3.56s5.91-11.61,6.32-18.35v-.09l-20.12-.62.2.13a16,16,0,0,0-3.76,2.61C159.71,471.84,159.64,478,159.58,482.5Z"/><path class="cls-23" d="M246.76,489.35c-15.94,6.46-33.88,1.19-63.72-21.23a3.38,3.38,0,0,1,.16-5.27c30.6-20.15,48.73-25.15,64.07-18.25l4.27,10.33-1.38,12.3-1.1,10Z"/><path class="cls-20" d="M183,468.12c29.84,22.42,47.78,27.69,63.72,21.23l2.3-12.16,1.1-10h0l-68.28-2.11A3.28,3.28,0,0,0,183,468.12Z"/><path class="cls-22" d="M268.5,473.79A97.62,97.62,0,0,1,253.22,486a50.12,50.12,0,0,1-6.46,3.36,25.15,25.15,0,0,1-13.25-22.59,25.49,25.49,0,0,1,13.76-22.16,46.72,46.72,0,0,1,6.28,3.56,90.8,90.8,0,0,1,15.28,13.61,8.48,8.48,0,0,1,2.29,6.07A8.73,8.73,0,0,1,268.5,473.79Z"/><path class="cls-24" d="M233.51,466.76a25.17,25.17,0,0,0,13.25,22.59,50.12,50.12,0,0,0,6.46-3.36,97.62,97.62,0,0,0,15.28-12.2,8.77,8.77,0,0,0,2.62-5.91l-37.6-1.17Z"/><path class="cls-25" d="M227.18,479.15a2.83,2.83,0,0,1-3.5-1.91,34.46,34.46,0,0,1-1.42-10.83,37.34,37.34,0,0,1,1.81-10.77,2.83,2.83,0,0,1,5.38,1.76,30.47,30.47,0,0,0-1.53,9.19,29.49,29.49,0,0,0,1.16,9.06A2.78,2.78,0,0,1,227.18,479.15Z"/><path class="cls-26" d="M222.26,466.41a34.46,34.46,0,0,0,1.42,10.83,2.83,2.83,0,0,0,3.5,1.91,2.78,2.78,0,0,0,1.9-3.5,29.49,29.49,0,0,1-1.16-9.06v0l-5.67-.17Z"/><circle class="cls-27" cx="250.58" cy="464.06" r="2.82"/></svg>