<svg id="Capa_1" enable-background="new 0 0 512 512" height="512" viewBox="0 0 512 512" width="512" xmlns="http://www.w3.org/2000/svg"><path d="m440.767 335.267c-8.284 0-15-6.716-15-15v-64.267c0-8.284 6.716-15 15-15s15 6.716 15 15v64.267c0 8.284-6.716 15-15 15z" fill="#ff7832"/><path d="m497 271h-112.467c-4.619 0-8.98-2.128-11.823-5.769s-3.85-8.388-2.729-12.87l56.233-224.933c1.669-6.677 7.669-11.362 14.552-11.362s12.883 4.685 14.552 11.362l56.233 224.933c1.121 4.481.114 9.229-2.729 12.87-2.841 3.641-7.203 5.769-11.822 5.769z" fill="#7d0"/><path d="m508.823 265.232c2.843-3.641 3.85-8.388 2.729-12.87l-56.233-224.933c-1.669-6.677-7.669-11.362-14.552-11.362v254.933h56.233c4.619 0 8.981-2.128 11.823-5.768z" fill="#00ab5e"/><path d="m71.234 335.267c-8.284 0-15-6.716-15-15v-64.267c0-8.284 6.716-15 15-15s15 6.716 15 15v64.267c0 8.284-6.716 15-15 15z" fill="#ffbe1e"/><path d="m256 335.267c-8.284 0-15-6.716-15-15v-64.267c0-8.284 6.716-15 15-15s15 6.716 15 15v64.267c0 8.284-6.716 15-15 15z" fill="#ffbe1e"/><path d="m127.467 271h-112.467c-4.619 0-8.98-2.128-11.823-5.769s-3.85-8.388-2.729-12.87l56.234-224.932c1.669-6.677 7.669-11.362 14.552-11.362s12.883 4.685 14.552 11.362l56.233 224.933c1.121 4.481.114 9.229-2.729 12.87-2.843 3.64-7.204 5.768-11.823 5.768z" fill="#89f900"/><path d="m139.29 265.232c2.843-3.641 3.85-8.388 2.729-12.87l-56.234-224.933c-1.669-6.677-7.669-11.362-14.552-11.362v254.933h56.233c4.62 0 8.981-2.128 11.824-5.768z" fill="#7d0"/><path d="m320.267 271h-128.533c-4.66 0-9.056-2.166-11.895-5.861-2.84-3.696-3.8-8.501-2.599-13.003l64.267-241c1.751-6.567 7.697-11.136 14.493-11.136s12.742 4.569 14.493 11.135l64.267 241c1.201 4.502.241 9.308-2.599 13.003-2.838 3.696-7.234 5.862-11.894 5.862z" fill="#89f900"/><path d="m332.161 265.139c2.84-3.696 3.8-8.501 2.599-13.003l-64.267-241c-1.751-6.567-7.697-11.136-14.493-11.136-.004 0-.008 0-.012 0v271h64.279c4.66 0 9.056-2.166 11.894-5.861z" fill="#7d0"/><path d="m497 512h-482c-8.284 0-15-6.716-15-15v-176.733c0-8.284 6.716-15 15-15h482c8.284 0 15 6.716 15 15v176.733c0 8.284-6.716 15-15 15z" fill="#00465f"/><path d="m512 497v-176.733c0-8.284-6.716-15-15-15h-241.012v206.733h241.012c8.284 0 15-6.716 15-15z" fill="#002c3c"/><g fill="#f0f5fa"><path d="m48.242 415.6h-33.242c-8.284 0-15-6.716-15-15s6.716-15 15-15h33.242c8.284 0 15 6.716 15 15s-6.715 15-15 15z"/><path d="m164.589 415.6h-49.863c-8.284 0-15-6.716-15-15s6.716-15 15-15h49.863c8.284 0 15 6.716 15 15s-6.716 15-15 15z"/><path d="m280.928 415.6h-49.855c-8.284 0-15-6.716-15-15s6.716-15 15-15h49.855c8.284 0 15 6.716 15 15s-6.716 15-15 15z"/></g><path d="m397.275 415.6h-49.863c-8.284 0-15-6.716-15-15s6.716-15 15-15h49.863c8.284 0 15 6.716 15 15s-6.716 15-15 15z" fill="#d7e3f0"/><path d="m497 415.6h-33.242c-8.284 0-15-6.716-15-15s6.716-15 15-15h33.242c8.284 0 15 6.716 15 15s-6.716 15-15 15z" fill="#d7e3f0"/><path d="m295.928 400.6c0-8.284-6.716-15-15-15h-24.94v30h24.94c8.284 0 15-6.715 15-15z" fill="#d7e3f0"/></svg>